Jump_normalized_Motion_pl07
version=1
nRows=23
nColumns=43
inDegrees=yes
endheader
time		pelvis_tilt		pelvis_list		pelvis_rotation		pelvis_tx		pelvis_ty		pelvis_tz		hip_flexion_r		hip_adduction_r		hip_rotation_r		knee_angle_r		ankle_angle_r		subtalar_angle_r		mtp_angle_r		hip_flexion_l		hip_adduction_l		hip_rotation_l		knee_angle_l		ankle_angle_l		subtalar_angle_l		mtp_angle_l		lumbar_extension		lumbar_bending		lumbar_rotation		neck_flexion		neck_lateral_bending		neck_rotation		arm_flex_r		arm_add_r		arm_rot_r		elbow_flex_r		pro_sup_r		wrist_flex_r		wrist_dev_r		hand_finger_flex_r		arm_flex_l		arm_add_l		arm_rot_l		elbow_flex_l		pro_sup_l		wrist_flex_l		wrist_dev_l		hand_finger_flex_l		
0.276667		-2.542793		-22.348444		92.368741		0.016964		1.795776		1.801984		74.634675		-4.069642		6.906610		-128.778134		28.738134		-4.198240		1.253241		74.704707		1.821791		5.498992		-125.883717		30.831416		-14.405754		5.698823		-45.373963		-1.052624		-2.261934		37.746888		1.243725		-1.176629		124.375402		-10.091748		35.487555		54.603636		65.300675		-32.876511		4.123825		47.469249		122.143408		-6.527804		22.541678		65.555847		-92.735977		-16.311936		-21.635958		-90.000210		
0.279596		-2.475806		-22.727803		92.394237		0.016937		1.796757		1.798749		74.482651		-4.067868		6.820414		-128.487942		28.753093		-4.181734		1.344846		74.599773		1.784191		5.481339		-125.598507		30.815301		-14.568307		5.724968		-44.966479		-1.017890		-2.239975		37.783326		1.215131		-1.128214		125.453896		-9.788823		35.544579		54.375104		65.240813		-32.768292		3.780862		47.289850		123.252532		-6.324178		22.646412		65.204457		-92.794819		-15.984485		-21.380928		-90.000210		
0.282525		-2.440574		-23.140132		92.396663		0.016868		1.797652		1.795420		74.375588		-4.086790		6.759076		-128.204906		28.774256		-4.169525		1.393491		74.527026		1.760012		5.454897		-125.369260		30.855021		-14.665494		5.740260		-44.501738		-1.010891		-2.218590		37.767162		1.199960		-1.098970		126.443460		-9.467108		35.473206		54.193289		65.246446		-32.783160		3.603708		47.159539		124.275230		-6.060523		22.600436		64.892825		-92.810526		-15.742498		-21.282580		-90.000210		
0.285455		-2.392854		-23.499053		92.392073		0.016810		1.798698		1.791989		74.187550		-4.076925		6.682753		-127.904346		28.770485		-4.154578		1.504615		74.382939		1.727809		5.426499		-125.116710		30.831071		-14.852079		5.758310		-44.091131		-0.990668		-2.159972		37.707317		1.182537		-1.061802		127.483704		-9.196659		35.598885		53.955071		65.284197		-32.718922		3.240212		46.973774		125.327335		-5.886198		22.751858		64.563353		-92.944708		-15.284368		-20.952662		-90.000210		
0.288384		-2.324399		-23.718758		92.377262		0.016688		1.800138		1.788306		73.800764		-4.059441		6.586061		-127.568988		28.731240		-4.162420		1.807229		74.072649		1.691983		5.400260		-124.855158		30.696380		-15.221874		5.806164		-43.835126		-0.935565		-2.044425		37.593268		1.095035		-1.021641		128.557988		-9.014671		35.946277		53.699961		65.247002		-32.488406		2.358605		46.608039		126.379736		-5.902164		23.240900		64.298270		-93.398770		-14.193801		-19.957845		-90.000210		
0.291313		-2.308630		-24.127256		92.349901		0.016657		1.801241		1.784692		73.642390		-4.054566		6.552992		-127.231130		28.735223		-4.140752		1.833718		73.931182		1.651764		5.351726		-124.562156		30.732739		-15.267524		5.812165		-43.347604		-0.967475		-2.021613		37.465301		1.138569		-1.009171		129.443090		-8.728185		35.874650		53.546684		65.305761		-32.537181		2.298839		46.549466		127.291579		-5.636856		23.155914		64.040887		-93.362769		-14.000923		-19.954355		-90.000210		
0.294242		-2.295390		-24.522746		92.313047		0.016584		1.802437		1.780990		73.455074		-4.044671		6.521832		-126.878461		28.732572		-4.117103		1.859023		73.771485		1.617614		5.297030		-124.266966		30.755760		-15.319036		5.815371		-42.872768		-0.999938		-1.978739		37.324008		1.181178		-0.996488		130.311177		-8.471761		35.818609		53.414324		65.377647		-32.578077		2.219603		46.499612		128.177689		-5.392267		23.082480		63.815533		-93.335092		-13.807149		-19.933938		-90.000210		
0.297172		-2.285834		-24.633626		92.118358		0.016762		1.804136		1.777119		72.956309		-3.862507		6.531219		-126.491893		28.686354		-4.074887		2.037380		73.265700		1.428257		5.169635		-123.950247		30.653472		-15.687562		5.797361		-42.736619		-1.147383		-1.763097		37.281288		1.287806		-1.019007		131.492252		-8.360255		36.348147		52.952969		65.779798		-32.504990		1.659993		46.520065		129.310432		-5.151228		23.466216		63.274295		-93.488192		-12.962964		-19.438661		-90.000210		
0.300101		-2.279849		-24.983244		92.076688		0.016669		1.805525		1.773092		72.668307		-3.867344		6.506354		-126.091014		28.669940		-4.051942		2.073930		73.007418		1.389554		5.101771		-123.622718		30.638741		-15.747718		5.794400		-42.296886		-1.177939		-1.709316		37.088261		1.294232		-1.023958		132.233822		-8.173080		36.264382		52.970463		65.841683		-32.524834		1.497872		46.509417		130.059635		-4.981899		23.380590		63.212319		-93.518028		-12.734124		-19.314650		-90.000210		
0.303030		-2.246230		-25.339250		92.060074		0.016730		1.806761		1.769283		72.413767		-3.827393		6.446778		-125.733715		28.719169		-4.038621		2.138876		72.765055		1.318812		5.050129		-123.242985		30.713255		-15.890408		5.796863		-41.850345		-1.212067		-1.657256		37.087321		1.303370		-1.036529		133.081567		-7.840210		36.144415		52.602914		65.879044		-32.615108		1.334577		46.472554		130.981316		-4.603178		23.289805		62.680274		-93.580333		-12.386804		-19.221647		-90.000210		
0.305960		-2.215775		-25.633194		92.008218		0.016737		1.808204		1.765196		72.055080		-3.800323		6.377182		-125.318634		28.716942		-4.008197		2.201556		72.459566		1.251903		5.010383		-122.938273		30.712810		-16.015066		5.791633		-41.460262		-1.253874		-1.572233		36.929871		1.373967		-1.068050		133.856501		-7.634032		36.095157		52.442190		65.928809		-32.644289		1.132068		46.474917		131.784184		-4.367766		23.209710		62.408355		-93.710251		-12.091356		-19.055012		-90.000210		
0.308889		-2.095080		-25.716625		91.984160		0.016851		1.810082		1.760767		71.405636		-3.695881		6.216505		-124.862249		28.714922		-4.003174		2.369325		71.872806		1.101650		5.027115		-122.571032		30.632673		-16.257550		5.783342		-41.301328		-1.238253		-1.382293		36.783419		1.450331		-1.153501		134.668249		-7.525627		36.197057		52.279892		65.943361		-32.595375		0.663033		46.586710		132.587222		-4.139240		23.229748		62.080999		-94.294259		-11.574506		-18.560451		-90.000210		
0.311818		-2.000696		-25.876064		91.967836		0.016927		1.811813		1.756341		70.840166		-3.631526		6.072712		-124.408859		28.709801		-3.999249		2.504360		71.368625		0.979838		5.031020		-122.194073		30.576851		-16.438776		5.779322		-41.045255		-1.223242		-1.241455		36.636447		1.489364		-1.216955		135.411116		-7.393779		36.237866		52.159649		65.940228		-32.570137		0.291974		46.671912		133.337180		-3.944463		23.213029		61.805108		-94.762042		-11.150018		-18.174010		-90.000210		
0.314747		-1.940315		-26.246056		91.999304		0.016932		1.812992		1.752196		70.556658		-3.635899		5.960363		-124.035267		28.740753		-4.012151		2.554041		71.123147		0.921699		5.020469		-121.810082		30.655866		-16.495004		5.795709		-40.532047		-1.198635		-1.226439		36.508897		1.450567		-1.221716		136.082800		-7.098411		36.058593		51.933155		65.872457		-32.664719		0.222750		46.659412		134.072074		-3.685733		23.071366		61.447466		-94.906526		-10.933580		-18.148882		-90.000210		
0.317677		-1.908199		-26.603200		91.995859		0.016884		1.814377		1.747785		70.223663		-3.654455		5.870197		-123.585940		28.715571		-3.995285		2.570062		70.837588		0.883625		4.996422		-121.438414		30.639617		-16.501347		5.798288		-40.021939		-1.194347		-1.190433		36.281803		1.471011		-1.235725		136.647762		-6.925826		35.924044		51.946290		65.846098		-32.698401		0.150638		46.661801		134.644738		-3.565376		22.924699		61.398225		-94.992679		-10.821902		-18.107687		-90.000210		
0.320606		-1.766440		-26.829769		92.033538		0.016992		1.815785		1.743415		69.751854		-3.597397		5.664571		-123.159641		28.742159		-4.029734		2.638575		70.434642		0.758640		5.067877		-121.077335		30.681066		-16.622896		5.818949		-39.642760		-1.130612		-1.091326		36.067230		1.516488		-1.282082		137.333116		-6.623992		35.787894		51.592604		65.741966		-32.783864		0.012700		46.705384		135.373012		-3.274007		22.761469		60.927543		-95.305102		-10.524982		-18.057366		-90.000210		
0.323535		-1.564421		-26.885629		92.113911		0.017001		1.817755		1.738541		69.004405		-3.524802		5.392382		-122.635506		28.702335		-4.130729		2.740852		69.788319		0.627018		5.189397		-120.661500		30.605691		-16.720226		5.853170		-39.459822		-0.982549		-0.926400		35.862469		1.530143		-1.338416		137.953697		-6.455690		35.736707		51.474720		65.543778		-32.788132		-0.311103		46.916191		135.955357		-3.144584		22.650641		60.796956		-95.890049		-10.207031		-17.910633		-90.000210		
0.326465		-1.304888		-26.834968		92.218044		0.017076		1.819880		1.733534		68.121652		-3.430532		5.033649		-122.084462		28.663482		-4.279324		2.882454		69.026996		0.458918		5.368423		-120.255343		30.535537		-16.859561		5.904869		-39.390135		-0.790032		-0.728683		35.676563		1.524439		-1.408326		138.607189		-6.254174		35.723528		51.250204		65.270077		-32.797567		-0.722561		47.205316		136.582612		-3.001155		22.553804		60.550222		-96.668879		-9.789567		-17.741734		-90.000210		
0.329394		-1.270514		-27.140790		92.222129		0.017023		1.821203		1.728931		67.754419		-3.466257		4.930714		-121.657055		28.614528		-4.288660		2.915298		68.673077		0.405922		5.325193		-119.852832		30.552628		-16.882569		5.924836		-38.888799		-0.781404		-0.718809		35.368885		1.475239		-1.424894		139.132988		-6.003596		35.602277		51.058878		65.164771		-32.877993		-0.807413		47.249227		137.164770		-2.842390		22.454066		60.272560		-96.790737		-9.633000		-17.794704		-90.000210		
0.332323		-1.251013		-27.469734		92.210618		0.016860		1.822648		1.724156		67.381958		-3.506793		4.856640		-121.175586		28.553168		-4.274421		2.927073		68.321343		0.374877		5.262591		-119.430783		30.513765		-16.875439		5.929302		-38.363727		-0.775666		-0.678170		35.120916		1.479309		-1.440961		139.581116		-5.832908		35.489030		51.033582		65.105694		-32.911288		-0.884087		47.275434		137.628818		-2.757704		22.342114		60.197998		-96.860123		-9.543403		-17.801741		-90.000210		
0.335253		-1.215619		-27.523320		92.167865		0.016754		1.824319		1.719155		66.712109		-3.503373		4.735901		-120.714624		28.437862		-4.318856		2.989385		67.666607		0.274896		5.200087		-119.035664		30.481719		-17.019981		5.946314		-38.105095		-0.772015		-0.606063		34.664736		1.474357		-1.511929		140.063952		-5.505466		35.258738		50.675625		64.851983		-32.951919		-1.136679		47.409976		138.171712		-2.527923		22.142978		59.802952		-97.122843		-9.308617		-17.853897		-90.000210		
0.338182		-1.223206		-27.680017		92.118523		0.016586		1.826102		1.714002		66.125628		-3.546047		4.697330		-120.207153		28.351330		-4.337033		3.044431		67.079790		0.225259		5.073164		-118.561904		30.391589		-17.098408		5.950182		-37.770915		-0.802052		-0.559642		34.465574		1.479306		-1.536650		140.485472		-5.358868		35.132485		50.636808		64.685125		-32.888126		-1.394238		47.535679		138.584714		-2.449133		21.996990		59.779577		-97.327521		-9.203597		-17.834167		-90.000210		
0.341111		-1.280312		-27.537999		92.002397		0.016404		1.828319		1.708497		65.192011		-3.579356		4.674065		-119.683102		28.224588		-4.420681		3.188193		66.129161		0.149628		4.878899		-118.071975		30.276724		-17.344079		5.969479		-37.764739		-0.873142		-0.502517		34.222284		1.468668		-1.589272		140.954255		-5.136604		34.966755		50.392710		64.296622		-32.734221		-1.939861		47.832743		139.052208		-2.313344		21.791509		59.611901		-97.799442		-8.995949		-17.822437		-90.000210		
